<svg width="24" height="24" viewBox="0 0 24 24" fill="none" xmlns="http://www.w3.org/2000/svg">
<path fill-rule="evenodd" clip-rule="evenodd" d="M4.12518 0.925527C2.44602 1.29074 1.15877 2.41694 0.616232 3.99544C0.44429 4.49569 0.441591 4.51983 0.419616 5.74336C0.401497 6.75508 0.414384 7.06546 0.489451 7.42529C0.769449 8.76736 1.69723 9.94802 2.94924 10.5556C3.87162 11.0033 4.17745 11.0611 5.63973 11.0645C6.73973 11.0672 6.93277 11.0543 7.35855 10.9502C9.10484 10.5233 10.3903 9.27535 10.8321 7.57805C10.9378 7.17225 10.9513 6.97977 10.9486 5.91764C10.945 4.50744 10.8864 4.21286 10.4312 3.31744C9.82422 2.12365 8.585 1.20061 7.22543 0.929745C6.67678 0.820446 4.62129 0.817616 4.12518 0.925527ZM17.0126 0.931453C15.9206 1.16447 14.8189 1.87616 14.1609 2.77351C13.905 3.12266 13.5933 3.78923 13.4524 4.28911C13.346 4.66666 13.3315 4.85573 13.3278 5.91764C13.3241 6.98975 13.3368 7.16905 13.4455 7.58403C13.8898 9.28021 15.1755 10.5246 16.9246 10.9513C17.339 11.0524 17.5493 11.0668 18.6097 11.0664C19.9187 11.0659 20.2064 11.0257 20.9396 10.7414C22.0712 10.3025 23.0564 9.35785 23.5257 8.26155C23.8067 7.60534 23.8695 7.17882 23.8684 5.93323C23.8674 4.71002 23.8215 4.39307 23.5452 3.70049C23.3072 3.10365 22.9909 2.65364 22.4388 2.12664C21.889 1.60166 21.3905 1.30655 20.62 1.04988L20.0967 0.875603L18.7474 0.862361C17.6954 0.852056 17.3132 0.867273 17.0126 0.931453ZM7.03306 3.23601C7.66294 3.45781 8.21407 3.9736 8.45249 4.56441C8.56049 4.83208 8.58175 5.00081 8.6019 5.75084C8.62801 6.72443 8.57304 7.12324 8.35517 7.53998C8.05408 8.11605 7.39286 8.61182 6.75229 8.74173C6.30822 8.83181 4.90195 8.81728 4.5085 8.71861C3.62423 8.49676 2.94814 7.78853 2.78098 6.90896C2.70669 6.51801 2.70305 5.46582 2.77454 5.04267C2.89879 4.30695 3.39952 3.6511 4.06868 3.3475C4.55559 3.12661 4.81169 3.09195 5.83249 3.10893C6.56503 3.12111 6.76754 3.14252 7.03306 3.23601ZM19.5398 3.13985C20.5713 3.30361 21.3458 4.07334 21.5105 5.09857C21.6028 5.67304 21.5421 6.89321 21.4025 7.26847C21.1758 7.87781 20.6432 8.41309 20.0331 8.64477C19.7556 8.75017 19.5851 8.77008 18.796 8.7892C17.7635 8.81429 17.4298 8.76768 16.9391 8.52997C16.571 8.35163 16.1223 7.92159 15.9363 7.56897C15.7168 7.15266 15.6646 6.84607 15.6639 5.9689C15.663 4.75797 15.8005 4.33327 16.3723 3.78133C16.7153 3.45034 17.0776 3.257 17.5358 3.16046C17.9076 3.08218 19.0993 3.0699 19.5398 3.13985ZM4.48653 13.3939C3.78477 13.489 2.84746 13.8478 2.33527 14.2174C1.41575 14.8809 0.718064 15.9288 0.494903 16.9814C0.380183 17.5226 0.374235 19.4518 0.485761 19.9617C0.680228 20.8509 1.10414 21.6026 1.7815 22.2593C2.4588 22.916 3.23419 23.327 4.1514 23.5155C4.67731 23.6236 6.6672 23.6179 7.22543 23.5066C8.58439 23.2359 9.80302 22.3292 10.4237 21.1272C10.8853 20.2329 10.945 19.9364 10.9486 18.5187C10.9513 17.4523 10.938 17.2651 10.8307 16.8524C10.3879 15.1499 9.03077 13.8493 7.30006 13.4686C6.8615 13.3721 5.01023 13.323 4.48653 13.3939ZM17.4154 13.3935C15.4036 13.7022 13.9356 14.9813 13.4455 16.8524C13.3368 17.2673 13.3241 17.4466 13.3278 18.5187C13.3327 19.9293 13.3918 20.226 13.8458 21.1189C14.3133 22.0385 15.2195 22.8552 16.2196 23.2584C16.9435 23.5503 17.375 23.6038 18.817 23.5807C20.0927 23.5603 20.0984 23.5597 20.62 23.3862C20.9077 23.2905 21.3277 23.1113 21.5533 22.9879C22.0489 22.7169 22.8157 22.0043 23.1448 21.5088C23.4122 21.1063 23.6823 20.4599 23.7912 19.9617C23.9028 19.4518 23.8968 17.5226 23.7821 16.9814C23.5929 16.0887 23.1199 15.2791 22.3998 14.6151C21.7691 14.0335 21.099 13.6805 20.2273 13.4702C19.813 13.3703 17.9058 13.3183 17.4154 13.3935ZM6.83209 15.7099C7.70381 15.9349 8.38722 16.6376 8.55933 17.486C8.60135 17.6928 8.61683 18.1294 8.6019 18.6855C8.58175 19.4356 8.56049 19.6043 8.45249 19.872C8.21391 20.4633 7.66162 20.9798 7.03306 21.1996C6.64599 21.3349 5.38743 21.3938 4.79489 21.3043C3.73741 21.1446 2.94345 20.3938 2.77454 19.3937C2.70305 18.9706 2.70669 17.9184 2.78098 17.5274C2.94582 16.66 3.61955 15.9451 4.48317 15.721C4.89017 15.6155 6.43776 15.6082 6.83209 15.7099ZM20.0331 15.7911C20.644 16.0241 21.1759 16.5589 21.4025 17.1679C21.5421 17.5432 21.6028 18.7633 21.5105 19.3378C21.342 20.3865 20.5638 21.1409 19.4821 21.3043C18.8896 21.3938 17.631 21.3349 17.244 21.1996C16.6154 20.9799 16.0633 20.4635 15.8244 19.872C15.7152 19.6018 15.6952 19.4381 15.6749 18.6528C15.6595 18.0521 15.6744 17.6462 15.7191 17.4514C15.9056 16.6383 16.5101 16.006 17.3594 15.736C17.6296 15.6501 17.816 15.6384 18.6924 15.6523C19.6021 15.6666 19.7457 15.6815 20.0331 15.7911Z" fill="#FFF2EE"/>
</svg>
