<svg width="15" height="12" viewBox="0 0 15 12" fill="none" xmlns="http://www.w3.org/2000/svg">
<path fill-rule="evenodd" clip-rule="evenodd" d="M2.09116 6.6215C1.0621 6.78443 0.311153 7.45941 0.0604794 8.44681C0.00486809 8.6658 -0.00161074 8.76042 0.000276773 9.32619C0.00278407 10.0706 0.033012 10.2271 0.265233 10.6984C0.504384 11.1836 0.967924 11.6146 1.4795 11.8274C1.84976 11.9814 2.07049 12.0097 2.80814 11.9975C3.46068 11.9867 3.46359 11.9864 3.73037 11.8949C3.87757 11.8444 4.09241 11.7498 4.2078 11.6847C4.46129 11.5416 4.85353 11.1656 5.02191 10.9041C5.15869 10.6917 5.29684 10.3506 5.35257 10.0877C5.40961 9.81859 5.40657 8.80052 5.34789 8.51491C5.25109 8.04381 5.00918 7.61659 4.6408 7.26617C4.31818 6.95927 3.97544 6.77293 3.52954 6.66197C3.3176 6.60925 2.34201 6.5818 2.09116 6.6215ZM3.43017 7.88675C3.74266 8.00972 4.01477 8.29197 4.13064 8.61333C4.20206 8.81137 4.23313 9.45528 4.18591 9.75844C4.09971 10.3119 3.70167 10.71 3.14834 10.7962C2.84524 10.8434 2.20146 10.8124 2.00347 10.7409C1.68197 10.625 1.39954 10.3525 1.27731 10.0403C1.22147 9.89777 1.21122 9.81135 1.20088 9.39692C1.19299 9.07992 1.20062 8.86575 1.22347 8.76293C1.31886 8.33384 1.62808 8.0002 2.06254 7.8577C2.20072 7.81236 2.29606 7.80619 2.74436 7.81349C3.2097 7.82104 3.28317 7.82891 3.43017 7.88675Z" fill="#322038"/>
<path fill-rule="evenodd" clip-rule="evenodd" d="M2.09116 0.0188729C1.0621 0.181795 0.311153 0.856783 0.0604794 1.84418C0.00486809 2.06317 -0.00161074 2.15779 0.000276773 2.72356C0.00278407 3.46795 0.033012 3.62451 0.265233 4.09575C0.504384 4.58099 0.967924 5.01199 1.4795 5.22478C1.84976 5.3788 2.07049 5.40704 2.80814 5.39486C3.46068 5.3841 3.46359 5.38376 3.73037 5.29224C3.87757 5.24172 4.09241 5.14716 4.2078 5.08204C4.46129 4.93901 4.85353 4.56295 5.02191 4.3015C5.15869 4.0891 5.29684 3.74798 5.35257 3.48503C5.40961 3.21596 5.40657 2.19789 5.34789 1.91228C5.25109 1.44118 5.00918 1.01396 4.6408 0.663543C4.31818 0.356635 3.97544 0.170298 3.52954 0.0593354C3.3176 0.00661554 2.34201 -0.020829 2.09116 0.0188729ZM3.43017 1.28412C3.74266 1.40709 4.01477 1.68934 4.13064 2.0107C4.20206 2.20873 4.23313 2.85264 4.18591 3.15581C4.09971 3.70924 3.70167 4.10735 3.14834 4.19358C2.84524 4.2408 2.20146 4.20972 2.00347 4.13829C1.68197 4.02234 1.39954 3.74984 1.27731 3.43769C1.22147 3.29514 1.21122 3.20872 1.20088 2.79429C1.19299 2.47729 1.20062 2.26312 1.22347 2.1603C1.31886 1.73121 1.62808 1.39756 2.06254 1.25507C2.20072 1.20973 2.29606 1.20356 2.74436 1.21086C3.2097 1.21841 3.28317 1.22627 3.43017 1.28412Z" fill="#322038"/>
<path d="M9.36394 11.5L9.36396 0.999992" stroke="#322038" stroke-linecap="round"/>
<path d="M9.36397 1.00002L7.5962 3.47489" stroke="#322038"/>
<path d="M9.36395 1L11 3.5" stroke="#322038"/>
</svg>
