<svg width="12" height="12" viewBox="0 0 12 12" fill="none" xmlns="http://www.w3.org/2000/svg">
<path fill-rule="evenodd" clip-rule="evenodd" d="M1.89922 0.0418829C1.04029 0.234616 0.381828 0.828933 0.104306 1.66194C0.0163538 1.92594 0.0149733 1.93867 0.00373276 2.58436C-0.00553578 3.11826 0.00105648 3.28206 0.0394547 3.47194C0.182681 4.18018 0.657264 4.80324 1.2977 5.1239C1.76952 5.36011 1.92596 5.39065 2.67395 5.39246C3.23662 5.39384 3.33537 5.38705 3.55316 5.33213C4.44644 5.10685 5.104 4.44826 5.32999 3.55256C5.38403 3.33841 5.39093 3.23683 5.38955 2.67633C5.38774 1.93213 5.35777 1.77668 5.1249 1.30414C4.81442 0.674155 4.18052 0.187053 3.48507 0.0441089C3.20442 -0.0135702 2.15299 -0.0150636 1.89922 0.0418829ZM3.38667 1.26117C3.70887 1.37822 3.99079 1.65042 4.11274 1.9622C4.16799 2.10345 4.17886 2.19249 4.18917 2.5883C4.20253 3.10209 4.17441 3.31254 4.06296 3.53247C3.90895 3.83647 3.57072 4.0981 3.24305 4.16666C3.0159 4.21419 2.29656 4.20653 2.0953 4.15446C1.64297 4.03738 1.29713 3.66363 1.21163 3.19947C1.17363 2.99315 1.17177 2.43789 1.20833 2.21458C1.27189 1.82633 1.52803 1.48023 1.87032 1.32001C2.11938 1.20344 2.25038 1.18515 2.77255 1.19411C3.14726 1.20054 3.25085 1.21184 3.38667 1.26117ZM8.69749 6.6215C7.66843 6.78442 6.91748 7.45941 6.6668 8.4468C6.61119 8.6658 6.60471 8.76042 6.6066 9.32619C6.60911 10.0706 6.63934 10.2271 6.87156 10.6984C7.11071 11.1836 7.57425 11.6146 8.08582 11.8274C8.45608 11.9814 8.67681 12.0097 9.41446 11.9975C10.067 11.9867 10.0699 11.9864 10.3367 11.8949C10.4839 11.8443 10.6987 11.7498 10.8141 11.6847C11.0676 11.5416 11.4599 11.1656 11.6282 10.9041C11.765 10.6917 11.9032 10.3506 11.9589 10.0877C12.0159 9.81859 12.0129 8.80051 11.9542 8.51491C11.8574 8.04381 11.6155 7.61658 11.2471 7.26617C10.9245 6.95926 10.5818 6.77292 10.1359 6.66196C9.92392 6.60924 8.94833 6.5818 8.69749 6.6215ZM10.0365 7.88675C10.349 8.00971 10.6211 8.29197 10.737 8.61333C10.8084 8.81136 10.8395 9.45527 10.7922 9.75843C10.706 10.3119 10.308 10.71 9.75467 10.7962C9.45157 10.8434 8.80778 10.8123 8.60979 10.7409C8.28829 10.625 8.00587 10.3525 7.88363 10.0403C7.82779 9.89777 7.81754 9.81135 7.8072 9.39691C7.79931 9.07992 7.80695 8.86574 7.8298 8.76292C7.92519 8.33384 8.2344 8.00019 8.66887 7.8577C8.80705 7.81236 8.90238 7.80619 9.35068 7.81349C9.81603 7.82104 9.8895 7.8289 10.0365 7.88675Z" fill="#322038"/>
<path d="M1.5 10.5L10.5 1.5" stroke="#322038" stroke-linecap="round"/>
</svg>
