<svg width="18" height="18" viewBox="0 0 18 18" fill="none" xmlns="http://www.w3.org/2000/svg">
<path fill-rule="evenodd" clip-rule="evenodd" d="M0.15646 2.49291C0.572742 1.2434 1.56043 0.351924 2.84883 0.0628239C3.22949 -0.0225958 4.80664 -0.0203557 5.22761 0.0661629C6.27079 0.280579 7.22163 1.01123 7.68735 1.95622C8.03665 2.66502 8.08162 2.8982 8.08432 4.01449C8.08639 4.85525 8.07604 5.00762 7.99499 5.32884C7.656 6.67239 6.66966 7.66028 5.32975 7.99819C5.00305 8.08057 4.85494 8.09076 4.01092 8.08869C2.88894 8.08598 2.65428 8.04016 1.94654 7.68585C0.985897 7.20486 0.274021 6.27027 0.0591824 5.20791C0.00158502 4.92308 -0.00830336 4.67739 0.00559946 3.87653C0.0224603 2.90801 0.024531 2.8889 0.15646 2.49291ZM6.16911 2.9433C5.98618 2.47562 5.56331 2.06733 5.08 1.89176C4.87628 1.81775 4.7209 1.8008 4.15882 1.79117C3.37558 1.77773 3.17908 1.80516 2.80548 1.98001C2.29204 2.22034 1.90784 2.73949 1.8125 3.32188C1.75765 3.65683 1.76044 4.48973 1.81745 4.7992C1.9457 5.49545 2.46446 6.05607 3.14295 6.23168C3.44484 6.30979 4.52385 6.32129 4.86457 6.24998C5.35607 6.14715 5.86342 5.75471 6.09444 5.2987C6.26162 4.96882 6.30379 4.65313 6.28376 3.88245C6.26829 3.28874 6.25198 3.15518 6.16911 2.9433ZM10.0002 12.6702C10.3762 11.1891 11.5026 10.1766 13.0462 9.93225C13.4225 9.87269 14.8859 9.91386 15.2038 9.99294C15.8726 10.1594 16.3868 10.4389 16.8707 10.8993C17.4233 11.4249 17.7861 12.0657 17.9313 12.7724C18.0193 13.2008 18.0239 14.7279 17.9383 15.1315C17.8548 15.5259 17.6475 16.0376 17.4424 16.3562C17.1898 16.7484 16.6014 17.3125 16.2212 17.527C16.0481 17.6247 15.7258 17.7665 15.505 17.8423C15.1049 17.9796 15.1005 17.9801 14.1217 17.9962C13.0152 18.0145 12.6841 17.9721 12.1287 17.7411C11.3614 17.4219 10.6661 16.7754 10.3073 16.0476C9.95901 15.3407 9.91366 15.1059 9.9099 13.9893C9.90707 13.1406 9.91679 12.9987 10.0002 12.6702ZM16.1054 12.92C15.9316 12.4379 15.5235 12.0146 15.0547 11.8301C14.8342 11.7433 14.724 11.7316 14.026 11.7202C13.3536 11.7093 13.2106 11.7185 13.0033 11.7865C12.3516 12.0003 11.8878 12.5008 11.7447 13.1444C11.7104 13.2986 11.699 13.6199 11.7108 14.0954C11.7263 14.717 11.7417 14.8467 11.8254 15.0605C12.0088 15.5287 12.4324 15.9375 12.9147 16.1114C13.2117 16.2185 14.1773 16.2651 14.632 16.1943C15.462 16.065 16.059 15.4678 16.1884 14.6376C16.2592 14.1829 16.2126 13.217 16.1054 12.92ZM16.4571 2.95711C16.8476 2.56658 16.8476 1.93342 16.4571 1.54289C16.0666 1.15237 15.4334 1.15237 15.0429 1.54289L1.54289 15.0429C1.15237 15.4334 1.15237 16.0666 1.54289 16.4571C1.93342 16.8476 2.56658 16.8476 2.95711 16.4571L16.4571 2.95711Z" fill="#E98365"/>
</svg>
