<svg width="52" height="37" fill="none" xmlns="http://www.w3.org/2000/svg"><defs><linearGradient id="a" x1="38.242" y1="24.267" x2="11.438" y2="-8.176" gradientUnits="userSpaceOnUse"><stop stop-color="#FFD8CC"/><stop offset="1" stop-color="#fff" stop-opacity="0"/></linearGradient></defs><path d="M0 37.544c25.385 0 51.978-16.987 51.978-34.944H55V39H0v-1.456Z" fill="#F98662"/><path d="M41.61 25.643c.565 0 1.001.221 1.306.665.306.435.458 1.051.458 1.847 0 .797-.145 1.42-.435 1.87-.283.444-.727.665-1.33.665-.365 0-.678-.101-.938-.304-.253-.203-.45-.492-.592-.867-.134-.383-.201-.838-.201-1.364 0-.796.141-1.412.424-1.847.283-.444.719-.665 1.307-.665Zm.01.98c-.193 0-.335.128-.424.383-.082.256-.123.639-.123 1.15 0 .518.04.908.123 1.171.09.255.23.383.424.383.202 0 .347-.128.436-.383.09-.263.134-.65.134-1.16 0-.519-.044-.905-.134-1.16-.09-.256-.234-.384-.436-.384Zm5.24-.867L42.704 33.8h-1.173l4.156-8.044h1.173Zm-.09 3.098c.38 0 .7.101.961.304.261.195.459.48.593.856.141.368.212.82.212 1.352 0 .797-.145 1.42-.436 1.87-.29.444-.733.665-1.33.665-.364 0-.677-.101-.938-.304-.253-.203-.45-.492-.592-.867-.134-.383-.201-.838-.201-1.364 0-.796.142-1.412.425-1.847.29-.443.726-.665 1.307-.665Zm.012.991c-.194 0-.335.128-.425.384-.082.247-.123.63-.123 1.149 0 .518.041.908.123 1.171.09.256.231.383.425.383.193 0 .335-.127.424-.383.097-.255.146-.646.146-1.171 0-.519-.049-.902-.146-1.15-.089-.255-.23-.383-.424-.383Z" fill="#fff"/><path d="M29.648 16.033c.816 15.373-11.434 18.481-23.632 21.234C40.66 33.787 53.346 13.422 52.37 0c-.976 17.896-14.557 16.9-22.722 16.033Z" fill="url(#a)"/></svg>